<svg width="21" height="21" viewBox="0 0 21 21" fill="none" xmlns="http://www.w3.org/2000/svg">
<path d="M15.64 2.46875H4.8213C4.04188 2.46875 3.41016 3.05164 3.41016 3.77082V17.2255C3.41016 17.9447 4.04188 18.5276 4.8213 18.5276H15.64C16.4195 18.5276 17.0512 17.9447 17.0512 17.2255V3.77082C17.0512 3.05164 16.4195 2.46875 15.64 2.46875Z" stroke="#2E1E91" stroke-width="1.5" stroke-miterlimit="10" stroke-linejoin="round"/>
<path d="M14.1758 12.0312H12.0444" stroke="#2E1E91" stroke-width="1.5" stroke-miterlimit="10" stroke-linecap="round"/>
<path d="M14.1758 8.96875H12.0444" stroke="#2E1E91" stroke-width="1.5" stroke-miterlimit="10" stroke-linecap="round"/>
<path d="M14.1758 5.90625H12.0444" stroke="#2E1E91" stroke-width="1.5" stroke-miterlimit="10" stroke-linecap="round"/>
<path d="M14.1758 15.0938H12.0444" stroke="#2E1E91" stroke-width="1.5" stroke-miterlimit="10" stroke-linecap="round"/>
<path d="M9.48242 5.90625V15.0938" stroke="#2E1E91" stroke-width="1.5" stroke-miterlimit="10" stroke-linecap="round"/>
<path d="M6.92503 6.5625C6.57189 6.5625 6.28561 6.26869 6.28561 5.90625C6.28561 5.54381 6.57189 5.25 6.92503 5.25C7.27817 5.25 7.56445 5.54381 7.56445 5.90625C7.56445 6.26869 7.27817 6.5625 6.92503 6.5625Z" fill="#2E1E91"/>
<path d="M6.92503 9.625C6.57189 9.625 6.28561 9.33119 6.28561 8.96875C6.28561 8.60631 6.57189 8.3125 6.92503 8.3125C7.27817 8.3125 7.56445 8.60631 7.56445 8.96875C7.56445 9.33119 7.27817 9.625 6.92503 9.625Z" fill="#2E1E91"/>
<path d="M6.92503 12.6875C6.57189 12.6875 6.28561 12.3937 6.28561 12.0312C6.28561 11.6688 6.57189 11.375 6.92503 11.375C7.27817 11.375 7.56445 11.6688 7.56445 12.0312C7.56445 12.3937 7.27817 12.6875 6.92503 12.6875Z" fill="#2E1E91"/>
<path d="M6.92503 15.75C6.57189 15.75 6.28561 15.4562 6.28561 15.0938C6.28561 14.7313 6.57189 14.4375 6.92503 14.4375C7.27817 14.4375 7.56445 14.7313 7.56445 15.0938C7.56445 15.4562 7.27817 15.75 6.92503 15.75Z" fill="#2E1E91"/>
</svg>
